/* XPM */
static char *_fb987acd3074f31f46de144055fd747nc6HCvB8nY3gVxPW[] = {
/* columns rows colors chars-per-pixel */
"38 38 71 1 ",
"  c None",
". c #45210E",
"X c #48230F",
"o c #462310",
"O c #4B2611",
"+ c #4E2812",
"@ c #512B14",
"# c #532F18",
"$ c #56321B",
"% c #5A361D",
"& c #57381F",
"* c #5C381F",
"= c #573720",
"- c #593720",
"; c #5C3B23",
": c #5E3F28",
"> c #613E24",
", c #5E4532",
"< c #5F4835",
"1 c #624126",
"2 c #64452A",
"3 c #66492C",
"4 c #6A4A2F",
"5 c #674730",
"6 c #674B31",
"7 c #6B4C31",
"8 c #634C39",
"9 c #704F34",
"0 c #6E5236",
"q c #66513D",
"w c #6C523B",
"e c #715437",
"r c #725639",
"t c #78573A",
"y c #765A3C",
"u c #7A5D3E",
"i c #7C613F",
"p c #6A5642",
"a c #6D5945",
"s c #7B5F40",
"d c #715E4B",
"f c #7E6241",
"g c #73624E",
"h c #766651",
"j c #786752",
"k c #776853",
"l c #7B6B56",
"z c #7E6D59",
"x c #826645",
"c c #846946",
"v c #866B49",
"b c #896E4B",
"n c #8B714E",
"m c #806F5A",
"M c #8E7552",
"N c #81725E",
"B c #917A56",
"V c #967E5A",
"C c #847661",
"Z c #887762",
"A c #867864",
"S c #887965",
"D c #8B7D69",
"F c #8E816D",
"G c #90836E",
"H c #938571",
"J c #978A76",
"K c #998B76",
"L c #9B8D79",
"P c #9F917C",
"I c #A29580",
/* pixels */
"              :>5:,522                ",
"           >:5ASAAAAFF:::             ",
"          >mzz--;%$$%#KKK;            ",
"         >l>;;-vxffsi*%%%G-           ",
"        >j4xxM*vfxfff*iiy%D@          ",
"       :m4cxcM9vfxffi1iuut*D=         ",
"      $C4vvccM9vxffci4xuuuu+g@        ",
"      -C4vvccM9bxxcff4fuuuy@d+        ",
"     ;hG7bbbbM9vcfxff4bxsuu+d8O       ",
"     :hGrnbbbV9vfcxxx6bcsss@d8+       ",
"     ;gjKtbnnV9vvcxcx6bfxu@j88+       ",
"     ;1jmKtMMV7Mccxxc6bxc;lpw++       ",
"     ;r1mNPe9V4Bcvccb6n>:Naa@3+       ",
"     -r>NZSIP9743222111CNgaa+3+       ",
"     %rr1BAHJPPPPKJJJDAlgga+33+       ",
"    1z4r>>2HHGHGFSNNClllj@@%3+8+      ",
"    >l4u%xc1>>DDFNSNCl++@44*3+8O      ",
"    2lz2*ccbMM>>***>*%sw043-+88O      ",
"    >%zS*xvbbM>vvcfif;y0033+p8OO      ",
"    *t%zV44bbM2cxcfif1y00++ppO3O      ",
"    -ts*mDD97b>xxxiiu>u$&ppwO22O      ",
"    #tr5%mmLL67441>*%$*ggppO&22X      ",
"    $tt4x>>DDKKKGGDDSNmggOX3&22X      ",
"    +tt5txx56SSSNNNNNjg+O632&22X      ",
"    @%&4ssxcx>>;##@#O+Oe6323&XXX      ",
"     -j>sfxxn>xfiiyrrr&r6322X,o       ",
"     -jC>fxxM5ssiuyerr&r333X,,.       ",
"     #%jA5xcn7ssuureer=w63X<<..       ",
"     $3%jS32n4ffuyrree10oo<,.-.       ",
"      #5;CDH22211:;$$$##aqq.&.        ",
"      @55;CCGHHGCNNzljgdqq.1&.        ",
"       +68#$AAANljhgdaaq..=;.         ",
"        +7rw$O@O+O+X....31;.          ",
"         Orrr-ssrr0066.632.           ",
"          OOw=ssi00776.6..            ",
"            Oooooooo....              ",
"                                      ",
"                                      "
};
