/* XPM */
static char *d7ec184e4b0b4a51b4b89e91c572590dt9TBlsTkuJpczMBB[] = {
/* columns rows colors chars-per-pixel */
"38 38 13 1 ",
"  c None",
". c #545959",
"X c #6B7470",
"o c #EAE178",
"O c #5C4E92",
"+ c #766DAA",
"@ c #818B83",
"# c #9DA89A",
"$ c #E8B5AC",
"% c #C1C8B9",
"& c #DDD5DE",
"* c #F3D8C5",
"= c #F3F2C0",
/* pixels */
"                                      ",
"                                      ",
"                                      ",
"                                      ",
"                                      ",
"                                      ",
"                                      ",
"                                      ",
"                                      ",
"                                      ",
"                                      ",
"                       OOOO           ",
"                      O====O          ",
"                     OO==$$=O         ",
"                    O====$$=O         ",
"                    O=======O         ",
"                   OO=======OO        ",
"                   O==O=====O         ",
"   XX  XXXXX       O========OO        ",
"   X#XX%...%XXX    O===***==O         ",
"   X@#X#%%%@X##X    O++++++OO         ",
"    .@.####@...@.O  o+++++=&O         ",
"      .@###@...@.=O  O=====&O         ",
"      .@@@@@.@@.&=O   O&&&OO          ",
"       ..... .. OO     OOO            ",
"                                      ",
"                                      ",
"                                      ",
"                                      ",
"                                      ",
"                                      ",
"                                      ",
"                                      ",
"                                      ",
"                                      ",
"                                      ",
"                                      ",
"                                      "
};
