/* XPM */
static char *_3661b7bc0f648ebc595def7aa3af352dz639nDgF74gYLDp[] = {
/* columns rows colors chars-per-pixel */
"38 38 13 1 ",
"  c None",
". c #545959",
"X c #6B7470",
"o c #EAE178",
"O c #5C4E92",
"+ c #766DAA",
"@ c #818B83",
"# c #9DA89A",
"$ c #E8B5AC",
"% c #C1C8B9",
"& c #DDD5DE",
"* c #F3D8C5",
"= c #F3F2C0",
/* pixels */
"                                      ",
"                                      ",
"                                      ",
"                                      ",
"                                      ",
"                                      ",
"                                      ",
"                                      ",
"                                      ",
"                                      ",
"                                      ",
"                                      ",
"         OOOO                         ",
"        O====O                        ",
"       O=$$==OO                       ",
"       O=$$====O                      ",
"       O=======O                      ",
"      OO=======OO                     ",
"       O=====O==O                     ",
"      OO========O       XXXXX  XX     ",
"       O==***===O    XXX%...%XX#X     ",
"       OO++++++O    X##X@%%%#X#@X     ",
"       O&=+++++o  O.@...@####.@.      ",
"       O&=====O  O=.@...@###@.        ",
"        OO&&&O   O=&.@@.@@@@@.        ",
"          OOO     OO .. .....         ",
"                                      ",
"                                      ",
"                                      ",
"                                      ",
"                                      ",
"                                      ",
"                                      ",
"                                      ",
"                                      ",
"                                      ",
"                                      ",
"                                      "
};
