/* XPM */
static char *_fd4e65af8e548a18753c173d210aedbrDnz3aIV3Dr4s2T5[] = {
/* columns rows colors chars-per-pixel */
"38 38 9 1 ",
"  c None",
". c #545959",
"X c #6B7470",
"o c #5C4E92",
"O c #766DAA",
"+ c #818B83",
"@ c #C1C8B9",
"# c #DDD5DE",
"$ c #F3F2C0",
/* pixels */
"                                      ",
"                                      ",
"                                      ",
"                                      ",
"                                      ",
"                                      ",
"                                      ",
"                                      ",
"                                      ",
"                                      ",
"                                      ",
"                                      ",
"             ooo    ooo               ",
"            o$$$o  o$$$o              ",
"            o$$$oooo$$$o              ",
"            o$$$####$$$oXX            ",
"            o$$$$$$$$$$o.@X           ",
"           oo$$$$$$$$$$oo+X           ",
"            o$$$$$$$$$$o++.           ",
"           oo$$$$$$$$$$oo+.           ",
"            o$$$$$$$$$$oX+.           ",
"             ooOOOOOOoo+X+.           ",
"            o#$OOooOOoX+X.            ",
"            o#$$o$$o$o.+.             ",
"             oo##oo##o...             ",
"               oo  oo                 ",
"                                      ",
"                                      ",
"                                      ",
"                                      ",
"                                      ",
"                                      ",
"                                      ",
"                                      ",
"                                      ",
"                                      ",
"                                      ",
"                                      "
};
