/* XPM */
static char *_10054eb1b9a4f3fe75744dca25f92f0rjYOxuzycdWzf5wi[] = {
/* columns rows colors chars-per-pixel */
"38 38 13 1 ",
"  c None",
". c #545959",
"X c #6B7470",
"o c #EAE178",
"O c #5C4E92",
"+ c #766DAA",
"@ c #818B83",
"# c #9DA89A",
"$ c #E8B5AC",
"% c #C1C8B9",
"& c #DDD5DE",
"* c #F3D8C5",
"= c #F3F2C0",
/* pixels */
"                                      ",
"                                      ",
"                                      ",
"                                      ",
"                                      ",
"                                      ",
"                                      ",
"                                      ",
"                                      ",
"              OOO    OOO              ",
"             O===O  O===O             ",
"             O$$=OOOO=$$O             ",
"             O$$=&&&&=$$O             ",
"             O===&&&&===O             ",
"             O===&&&&===O             ",
"            OO==========OO            ",
"             O=O======O=O             ",
"            XXX=========OO            ",
"           XXXXX======**O             ",
"          X%...%X+++++OO              ",
"          X@%%%@X+o=++=&O             ",
"          .@#.#@.=oo===&O             ",
"          .@###@.&OO&&OO              ",
"          .@@@@@.O  OO                ",
"          .@@@@@.                     ",
"           .....                      ",
"                                      ",
"                                      ",
"                                      ",
"                                      ",
"                                      ",
"                                      ",
"                                      ",
"                                      ",
"                                      ",
"                                      ",
"                                      ",
"                                      "
};
