/* XPM */
static char *d9cf8ad0fb8b48eaeac5899efa051a9277ARoWYaVCDlOhd4[] = {
/* columns rows colors chars-per-pixel */
"38 38 138 2 ",
"   c None",
".  c #4F2713",
"X  c #4E2913",
"o  c #532C14",
"O  c #542E19",
"+  c #57321C",
"@  c #59341D",
"#  c #5D381E",
"$  c #5B3721",
"%  c #5E3B24",
"&  c #613D25",
"*  c #613E29",
"=  c #624127",
"-  c #64442C",
";  c #674B2F",
":  c #694A2F",
">  c #674731",
",  c #654A35",
"<  c #6A4D31",
"1  c #634C38",
"2  c #6C4E39",
"3  c #6E5134",
"4  c #66513D",
"5  c #68523F",
"6  c #705335",
"7  c #735539",
"8  c #75593B",
"9  c #785A3E",
"0  c #675341",
"q  c #695542",
"w  c #6C5843",
"e  c #6F5F4D",
"r  c #7A5E43",
"t  c #6F604E",
"y  c #7D6144",
"u  c #73624E",
"i  c #7F6548",
"p  c #746552",
"a  c #796653",
"s  c #7A6A56",
"d  c #7C6D5C",
"f  c #7E705E",
"g  c #806649",
"h  c #836A4D",
"j  c #876E52",
"k  c #886F52",
"l  c #806F5E",
"z  c #877053",
"x  c #8A7256",
"c  c #81715F",
"v  c #8C765A",
"b  c #8E795C",
"n  c #907A5D",
"m  c #827564",
"M  c #857866",
"N  c #867868",
"B  c #867968",
"V  c #867A69",
"C  c #887A68",
"Z  c #887A69",
"A  c #887B69",
"S  c #897B6B",
"D  c #8A7C6B",
"F  c #897C6C",
"G  c #927C61",
"H  c #937D62",
"J  c #947E62",
"K  c #957F62",
"L  c #947F63",
"P  c #957F63",
"I  c #967F63",
"U  c #947F64",
"Y  c #957F64",
"T  c #8D806F",
"R  c #8D816F",
"E  c #8F816E",
"W  c #948064",
"Q  c #958064",
"!  c #948065",
"~  c #958065",
"^  c #958165",
"/  c #968064",
"(  c #968164",
")  c #968065",
"_  c #978065",
"`  c #968165",
"'  c #978165",
"]  c #958166",
"[  c #978266",
"{  c #968267",
"}  c #978267",
"|  c #978367",
" . c #988167",
".. c #988267",
"X. c #988367",
"o. c #988468",
"O. c #998468",
"+. c #9A866A",
"@. c #9C876C",
"#. c #8E8270",
"$. c #8F8270",
"%. c #8F8273",
"&. c #918374",
"*. c #918576",
"=. c #938676",
"-. c #928677",
";. c #948778",
":. c #93887B",
">. c #94897B",
",. c #968B7B",
"<. c #968B7C",
"1. c #978B7E",
"2. c #978C7C",
"3. c #978C7D",
"4. c #968A7B",
"5. c #988B7E",
"6. c #988D7E",
"7. c #988E81",
"8. c #998F81",
"9. c #9B9082",
"0. c #9B9182",
"q. c #9A9183",
"w. c #9C9384",
"e. c #9E9487",
"r. c #9E9488",
"t. c #9F9488",
"y. c #9F9588",
"u. c #9F968A",
"i. c #A09589",
"p. c #A09689",
"a. c #A09789",
"s. c #A0968A",
"d. c #A1978A",
"f. c #A1978B",
"g. c #A1988B",
"h. c #A2988C",
"j. c #A2998C",
"k. c #A3998D",
/* pixels */
"                                                                            ",
"                                                                            ",
"                                                                            ",
"        % @ @ @                                             % @ @ %         ",
"      $ l s a @ o o o o o @   o o o o o o o o   o o o o o o % a a d @       ",
"      - N l d % 6 3 3 6 6 h @ h 3 3 6 6 6 3 8 % i 3 3 6 6 3 = d d m &       ",
"      , >.D D & y h h h h z - b h h h h h h x - z h h h h h - S S :.-       ",
"      2 8.=.=.* g h h h h b : H h h h h h h b - v h h h h h - =.=.8.-       ",
"      2 y.;.;.* i v b b b X.8 n v b b b b b n : v v v v v v - =.=.y.>       ",
"      2 a.9.9.* h b b b b X.8 Q b b b b b b H < b b b b b b - 1.5.y.<       ",
"      2 j.a.a.- h Q Q Q Q @.7 X.U U U U U U Q < Q I I I I I > a.a.a.,       ",
"      2 j.a.a.* h Q Q Q Q O.7 X.Q Q Q Q Q Q Q < Q U Q Q Q Q > y.y.j.,       ",
"      2 j.a.y.& h I Q Q Q O.7 O.I Q U U U U Q : Q I U U U I > e.y.a.,       ",
"      - g.6.6.& i n n n n O.7 X.n n n b b b Q : Q b b b b b - 2.2.a.,       ",
"      - a.2.2.% i n n n n Q 7 Q n n n b b b Q : Q b b b b b - >.>.y.,       ",
"      * w.$.$.@ i n n n n I < Q b b b b b b Q - Q n b b b b - R R 9.,       ",
"      & 9.$.$.@ 9 h h h h x < x h h h h h h v & v h h h h h - R R 8.>       ",
"      & 1.S S o 8 h h h h k & x h h h h h h v # x h h h h h * B B >.=       ",
"      % &.S S o 8 h h h g k # k y r r r r r x @ x h h h h h * N N $.*       ",
"      @ o o o o 8 8 8 8 8 g o 6 % % % $ $ @ r + 8 8 7 7 7 3 % o o o $       ",
"      @ >.1.>.o o o o o o o o o o R R R R @ o o o o o o o o + >.>.>.%       ",
"      % D d d o = * * * * * o % o d o o s o % o < - - - - - o d d D %       ",
"      % B d d o - 7 6 7 7 8 o < o p c o t o % o 8 3 3 3 3 3 o s s N $       ",
"      & m p p o - 3 3 3 3 8 o < o u t o t o % o 8 < < < < < o p p m @       ",
"      % d u p o = 3 3 < < 8 o < o w 5 s w o % o 8 < < < < < o p u d O       ",
"      + a u u o = < < < < 8 o < = o o o o % < o 8 < < < < < X t t a o       ",
"      o u w w X & : : : : 8 o < < = = = = < < o 8 < ; ; ; < X w w u o       ",
"      X u w w X & ; ; ; ; 8 o < < < < < < < < o 8 ; ; ; ; ; X w w u .       ",
"      X u w w X % < ; ; ; 8 o < < < < < < < < o 7 ; ; ; ; < X w w u .       ",
"      . $ $ + + % % % % % 8 o % % % % % % % % o 7 % % % % % + + + + .       ",
"      . N m m m X X X o o o o o o o o o o o o o o o o X X X m m m N .       ",
"      X t t t p X s d d c m N D F F F F S B B B N m f d d X p e e t .       ",
"      . 1 1 1 u X 5 4 5 5 0 0 w w w w w q w w w w w 0 0 0 X u 1 1 1 .       ",
"      . . . . . . . . . . . . . . . . . . . . . . . . . . . . . . . .       ",
"                                                                            ",
"                                                                            ",
"                                                                            ",
"                                                                            "
};
