/* XPM */
static char *b28fdcd2739c40bf8bd0d74d304eeb20e5cNHRvTj6QfsTWS[] = {
/* columns rows colors chars-per-pixel */
"38 49 76 1 ",
"  c None",
". c #4F2713",
"X c #4F2913",
"o c #502713",
"O c #522A15",
"+ c #552F19",
"@ c #56321B",
"# c #59351D",
"$ c #5C391F",
"% c #5B3721",
"& c #5D3C22",
"* c #603D25",
"= c #633E28",
"- c #5F4024",
"; c #5F4531",
": c #614126",
"> c #64442A",
", c #68442B",
"< c #66492C",
"1 c #694C2E",
"2 c #6B502F",
"3 c #644732",
"4 c #684731",
"5 c #6C4D32",
"6 c #644D39",
"7 c #6D4E39",
"8 c #6E5334",
"9 c #66513D",
"0 c #68533F",
"q c #715536",
"w c #725837",
"e c #745739",
"r c #755B3B",
"t c #795F3F",
"y c #79603F",
"u c #6A5542",
"i c #6D5A44",
"p c #795F40",
"a c #715E49",
"s c #795F4C",
"d c #6F604E",
"f c #7B6242",
"g c #74624D",
"h c #766552",
"j c #796752",
"k c #776854",
"l c #796955",
"z c #7D6D5B",
"x c #7F705F",
"c c #816647",
"v c #846B4A",
"b c #886F4F",
"n c #88704F",
"m c #886F50",
"M c #826F5C",
"N c #8B7454",
"B c #81715D",
"V c #8D7758",
"C c #8F7959",
"Z c #927D5E",
"A c #837563",
"S c #857966",
"D c #897A66",
"F c #877B6A",
"G c #8A7D6C",
"H c #937F60",
"J c #8E806E",
"K c #8F8270",
"L c #928574",
"P c #958876",
"I c #958979",
"U c #998E7D",
"Y c #9A8F80",
"T c #9D9283",
"R c #A09687",
"E c #A49989",
/* pixels */
"   ,,,,                      :,,,     ",
"  qUPP,,,=,==,==,==,,=,==,:,,,PLT5    ",
"  7RPP,cvbNNCZCCCNCNmmmmmbccc=PPR5    ",
"  7EEE=cbNCZZZZ*****$ZZZVVmbc,EEE7    ",
"  +MjjO5qq2eeerOGcGGOeeeeqq55,jjMO    ",
"  OljjOOO+OOO+OOPI7LO+OoOOO+OOjgM+    ",
"  OMsj+*-$*$***OUYYUO***$$$$$Osal+    ",
"  OjafO$$-$*$*&OshjjO*$$*$$$$OgalO    ",
"  Ojaao::::,>>:>OOOO::::**&-&OfdkO    ",
"  ojiio:*::>:::>>::::-::**&&$Od0ho    ",
"  ogiio&:::::-::=-&:=-&:*-$&&Xrig.    ",
"  ogiio-:>><<<<<<<<<<<<<,,,:-Xuuh.    ",
"  .auu.:>><<<<<<3<1<<<1<<<<:-Xuuh.    ",
"  .auu.:<<<<<1111414113<5<<:-Xuua.    ",
"  oa09o*<<11111155515<411<<:-.00io    ",
"  oa99.1qwwqwwwwwewwwwwww8885X99a.    ",
"  .u96X4wrrwwyywwrrrrwrwwwq22o77uo    ",
"  .u66X<wwrrrwwwrrrerrrrwwq88o66u.    ",
"  .u3;.5wwwrrrywrrryrrrrrrw88o3;u.    ",
"  %=&&@8rrryyyyyyyyyyyyyfyytqXX.oo    ",
"  &KKG+%&&&--;-<><<>>>:>>:::*oLJGo    ",
"  +uui..XXXXXXOOooOOOOOOOOOoooiii&    ",
"  @%%%%88rrrrrrryyyfyyyytreqwo&*&&    ",
"  +AhhX<1:<<<<<<<,1<,<<,<<<,1ojkS+    ",
"  +AllO<;-;-<<;<<<-<<<;;><<><OllS+    ",
"  %GAMO>-;-<<-----<-::<->>>>>OBBG@    ",
"  &KAA@*-----&&&--$---&&&&&--@BDK%    ",
"  =IDD#&--@--&&&$--$$$&&$-&&-#BJI=    ",
"  >IJG$*----&&&&$-&&&&&&&&&&$#JSI=    ",
"  >IJJ$:---@&&&&$$&&&##-%%$$$$JJI=    ",
"  ,ULJ$#@&@@@@@&@@@@@@@@@@@@@$JJU,    ",
"  ,UJJ*#@&@@@@@@@@@@@@@@@@@@@&KKU3    ",
"  3ULL*####@#@@@@@@@@@@O@@@O@&LLU,    ",
"  ,TPP*#####@##@@@@@@@@+@@@@@*LPU<    ",
"  4TIP=OOOOOo%..XXXOXX#XXXXXO*PPT4    ",
"  3ETT*evvvvbOvcvvvjvvOvvvvvv&TUT3    ",
"  +Gxx+5yrywfOfrwywwyf@fwyrry@xxG=    ",
"  oGxzO3ryryfOyrrwrryfXfrwrry+zxF&    ",
"  OAhk+<ryywyOyrwyywyy+frrryrOjkA%    ",
"  Ozhh+<8888yOy8882w2yXy2w88wOhgz@    ",
"  OkgdO<8ww8rOy888888yXy88888Oddk+    ",
"  OhddX;8882rXw882888yXy88w88Xiih+    ",
"  OhrdX-2211rO8112212wXr82228Xiih.    ",
"  Xdr0+-2211rX81<<2228Ow21188Xuih.    ",
"  O&&##-;--;wO2-;;<<;2O9--<-:##%#.    ",
"  XSSxxXXX+XX++XXXXXXOOXX+XXXSxSA.    ",
"  XdddkXlzxxxxJJFJJJJSFFxxxxXkddd.    ",
"  X666hX9999d009uuuiu0uuuuuuXg666.    ",
"  X.....................o.........    "
};
