/* XPM */
static char *_1e2380e0855429e980548de04adf0a5UnjEUa08DPc3Qfm0[] = {
/* columns rows colors chars-per-pixel */
"38 38 124 2 ",
"   c None",
".  c #4F2913",
"X  c #512A14",
"o  c #532F18",
"O  c #563621",
"+  c #5A3A25",
"@  c #5C3E2A",
"#  c #5E412E",
"$  c #574537",
"%  c #594537",
"&  c #574638",
"*  c #594639",
"=  c #5B4A3C",
"-  c #604532",
";  c #654B39",
":  c #5F4E40",
">  c #604F42",
",  c #645445",
"<  c #665847",
"1  c #63574C",
"2  c #64594E",
"3  c #695C4C",
"4  c #645C53",
"5  c #695E54",
"6  c #676057",
"7  c #6B6155",
"8  c #6E655B",
"9  c #70675D",
"0  c #70685E",
"q  c #6F6A61",
"w  c #736C61",
"e  c #767067",
"r  c #777169",
"t  c #77716A",
"y  c #78736A",
"u  c #78726B",
"i  c #7A756B",
"p  c #7B756B",
"a  c #7A756C",
"s  c #7B766C",
"d  c #7B766D",
"f  c #7C766D",
"g  c #7D766D",
"h  c #7C776D",
"j  c #7D776D",
"k  c #7C776E",
"l  c #7D776E",
"z  c #7E776E",
"x  c #7E786E",
"c  c #7E786F",
"v  c #807B72",
"b  c #838075",
"n  c #838175",
"m  c #858377",
"M  c #848276",
"N  c #858378",
"B  c #868378",
"V  c #868478",
"C  c #87857B",
"Z  c #868479",
"A  c #88857B",
"S  c #88867B",
"D  c #88867C",
"F  c #8B887E",
"G  c #8C887E",
"H  c #8C897F",
"J  c #8D897F",
"K  c #8C8A7F",
"L  c #8D8A7F",
"P  c #8E8A7F",
"I  c #8A887D",
"U  c #8D8980",
"Y  c #8C8A80",
"T  c #8D8A80",
"R  c #8D8B80",
"E  c #8E8A80",
"W  c #8F8B80",
"Q  c #8E8A81",
"!  c #8F8B81",
"~  c #8F8C81",
"^  c #8E8C82",
"/  c #8F8C82",
"(  c #8E8C83",
")  c #8F8C84",
"_  c #8F8D84",
"`  c #8E8C82",
"'  c #908C81",
"]  c #908D81",
"[  c #918D81",
"{  c #908C82",
"}  c #908D82",
"|  c #918D82",
" . c #908C83",
".. c #918D83",
"X. c #918E83",
"o. c #928E82",
"O. c #928E83",
"+. c #928E84",
"@. c #938F84",
"#. c #918F87",
"$. c #929087",
"%. c #939087",
"&. c #929088",
"*. c #939088",
"=. c #939188",
"-. c #939189",
";. c #949189",
":. c #949289",
">. c #959289",
",. c #94928A",
"<. c #95938B",
"1. c #96938B",
"2. c #96938C",
"3. c #96948C",
"4. c #97948D",
"5. c #97958D",
"6. c #97958E",
"7. c #95938B",
"8. c #98958F",
"9. c #989690",
"0. c #999791",
"q. c #9A9790",
"w. c #9A9791",
"e. c #9A9890",
/* pixels */
"                                                                            ",
"                  + @ # - - - % - - - # # # # # # @ @ O +                   ",
"                + p p v v v ,.C A A A A C A C ,.8 w 5 5 5 X                 ",
"                @ p d d v v ,.C A A A A C C C $.0 8 5 5 5 X                 ",
"                @ y d d f f ,.Y P P R F R S C ,.8 7 6 3 6 .                 ",
"                @ p d d f p ,.Y F ( R R Y R Y $.9 6 7 6 5 .                 ",
"                @ p f f f x ,.Y P K P R R Y ! ,.0 0 7 5 6 X                 ",
"                @ f f f x f q.! ( P R R R R K 5.0 0 9 6 7 X                 ",
"                @ f f f f x e.e.5.5.5.5.8.1.5.3.0 0 0 7 6 X                 ",
"                @ w f x x q.F ! L ! L L L L L I e.0 0 2 2 X                 ",
"                # 0 x d 8.L ! !  .! ! ( L [ L L L 5.8 2 5 X                 ",
"                # e 0 5.L ( ! ! ! ! [ ( [ [ %.P L [ 5.5 2 o                 ",
"                @ 0 1.[  .! ( [ ! ( [ [ %.[ [ [ ..[ ( 1.2 o                 ",
"                # 5.[ [ ..[ ..[ [ [ ..[ [ %.%.[ ..[ [ [ 3.o                 ",
"                X 5.5.8.5.4.5.5.,.4.4.1.$.$.$.$.,.,.$.,.3.X                 ",
"                X e 3 4 4 4 4 4 4 4 4 5 4 4 5 4 4 4 4 4 e X                 ",
"                X t 4 4 4 4 4 4 5 4 4 4 4 4 4 4 1 4 4 1 t .                 ",
"                . u 4 4 4 4 4 5 4 4 4 4 4 4 4 2 4 1 1 4 e .                 ",
"                X X X X X X X X X X X X X X X X . . . . . .                 ",
"                      X = = X % * * * * % % % . = = .                       ",
"                      X * = X % * * * % % % % . = * .                       ",
"                      X 9 5 X , > , ; > : : : . 2 8 .                       ",
"                  + + . 9 5 5 o X X X X . X . 1 1 8 . O O                   ",
"                ; ( N X 7 5 5 7 5 5 3 2 1 1 1 1 1 8 . , , X                 ",
"                - ( M 7 X , * * = & % % & & $ $ $ . , < , .                 ",
"                - ! M 3 7 X , * & $ = = & & $ $ . , < < < X                 ",
"                - [ A 3 7 X 8 7 5 5 5 8 1 4 1 8 . < < 3 3 .                 ",
"                # o.Z 7 7 o 9 7 8 5 5 5 5 1 4 8 . 2 3 3 7 .                 ",
"                # Q v 8 9 X 9 5 8 7 7 7 5 5 5 8 . 3 7 b ( O                 ",
"                #  .A A 9 X 9 2 8 7 7 5 5 5 5 8 . 7 n b ( O                 ",
"                @ *.G J v o 9 5 4 4 4 5 5 5 7 8 . 7 b b _ O                 ",
"                @ >.P v J v X X X X X X X X X . m m M M _ O                 ",
"                @ ,.( D C C C N C C N N N N N M M C M M ) O                 ",
"                O 1.7.7.7.5.4.5.9.9.7.7.7.7.-.&.-.-.-.-.7..                 ",
"                . q 6 5 6 4 5 4 4 4 4 4 4 4 4 4 4 6 4 4 q X                 ",
"                . w 8 5 6 5 5 4 4 4 4 4 4 4 4 4 4 4 4 4 q X                 ",
"                X q 6 4 6 5 4 4 4 4 4 4 4 4 4 4 4 4 6 4 q .                 ",
"                . X o X X X X o X X o . . . . X . . . . . .                 "
};
