/* XPM */
static char *de9c059276af4c0af00159f3fc2f6e4dMW2ljAP5havoaEpU[] = {
/* columns rows colors chars-per-pixel */
"39 38 224 2 ",
"   c None",
".  c #4F2913",
"X  c #502913",
"o  c #502A13",
"O  c #502A14",
"+  c #512A14",
"@  c #512B14",
"#  c #522B14",
"$  c #522C14",
"%  c #532C14",
"&  c #502C17",
"*  c #58331D",
"=  c #59341D",
"-  c #59351D",
";  c #59361D",
":  c #5A361D",
">  c #5B361D",
",  c #5B371E",
"<  c #5B371F",
"1  c #5B3820",
"2  c #5B3821",
"3  c #5B3823",
"4  c #5B3923",
"5  c #5C3821",
"6  c #5C3922",
"7  c #5D3922",
"8  c #5C3923",
"9  c #5C3A23",
"0  c #5C3A24",
"q  c #5C3B24",
"w  c #5E3B24",
"e  c #5E3E27",
"r  c #5F3E27",
"t  c #5F3F28",
"y  c #5E4029",
"u  c #55473E",
"i  c #55483E",
"p  c #55483F",
"a  c #56493F",
"s  c #554A3E",
"d  c #574A3F",
"f  c #574B3F",
"g  c #604029",
"h  c #60402A",
"j  c #61412A",
"k  c #60412B",
"l  c #61412B",
"z  c #62432D",
"x  c #644631",
"c  c #654934",
"v  c #654A35",
"b  c #574A40",
"n  c #584B40",
"m  c #594E43",
"M  c #5A4E43",
"N  c #5B4F43",
"B  c #5B4F44",
"V  c #5B4F45",
"C  c #5C5044",
"Z  c #5C5146",
"A  c #5D5147",
"S  c #5C5247",
"D  c #5C5348",
"F  c #5C5349",
"G  c #5D5349",
"H  c #5E5348",
"J  c #61584B",
"K  c #62594B",
"L  c #676159",
"P  c #686259",
"I  c #68625A",
"U  c #69625A",
"Y  c #69635A",
"T  c #69635B",
"R  c #6A635B",
"E  c #6A645B",
"W  c #6B645B",
"Q  c #6B655B",
"!  c #6E6659",
"~  c #6C655B",
"^  c #6D655B",
"/  c #6D665B",
"(  c #6F665A",
")  c #6F675B",
"_  c #6C655C",
"`  c #6D665C",
"'  c #6F685A",
"]  c #6F695A",
"[  c #70675B",
"{  c #716A5C",
"}  c #726A5D",
"|  c #726B5D",
" . c #736B5D",
".. c #736B5E",
"X. c #736C5F",
"o. c #746C5E",
"O. c #746C5F",
"+. c #746D5F",
"@. c #756D5F",
"#. c #6D6860",
"$. c #6E6860",
"%. c #6E6960",
"&. c #6E6961",
"*. c #6F6A62",
"=. c #706A62",
"-. c #706B62",
";. c #716B62",
":. c #726B62",
">. c #726C62",
",. c #736C62",
"<. c #736D62",
"1. c #726C63",
"2. c #736C63",
"3. c #776E62",
"4. c #706C64",
"5. c #716C64",
"6. c #716D65",
"7. c #726E66",
"8. c #726E67",
"9. c #736F67",
"0. c #756F66",
"q. c #736F68",
"w. c #777165",
"e. c #777166",
"r. c #777266",
"t. c #787165",
"y. c #787265",
"u. c #787166",
"i. c #797266",
"p. c #797366",
"a. c #797267",
"s. c #7A7367",
"d. c #767168",
"f. c #797368",
"g. c #7A7368",
"h. c #7A7468",
"j. c #7A7469",
"k. c #7A746A",
"l. c #7A756B",
"z. c #79756C",
"x. c #7A756C",
"c. c #78766F",
"v. c #79766F",
"b. c #7D786D",
"n. c #7D796D",
"m. c #7E796D",
"M. c #7E7A6D",
"N. c #7E796E",
"B. c #797770",
"V. c #7A7770",
"C. c #7A7870",
"Z. c #7B7870",
"A. c #7B7871",
"S. c #807B6E",
"D. c #807B6F",
"F. c #827E71",
"G. c #837D72",
"H. c #827E72",
"J. c #837E72",
"K. c #837F72",
"L. c #837E73",
"P. c #837F73",
"I. c #847F74",
"U. c #838073",
"Y. c #848073",
"T. c #848074",
"R. c #858074",
"E. c #858174",
"W. c #858175",
"Q. c #868074",
"!. c #878174",
"~. c #868175",
"^. c #878175",
"/. c #878275",
"(. c #878176",
"). c #878276",
"_. c #878376",
"`. c #878377",
"'. c #888374",
"]. c #888377",
"[. c #888477",
"{. c #898477",
"}. c #85837A",
"|. c #87837D",
" X c #888378",
".X c #888478",
"XX c #888479",
"oX c #898479",
"OX c #898579",
"+X c #8A8579",
"@X c #8A8679",
"#X c #89847B",
"$X c #8A857A",
"%X c #8A867A",
"&X c #8B867A",
"*X c #8A867B",
"=X c #8B877B",
"-X c #8B877D",
";X c #8C877E",
":X c #8D887F",
">X c #908C81",
",X c #908D81",
"<X c #908C82",
"1X c #908D82",
"2X c #918D82",
"3X c #918D83",
"4X c #939086",
"5X c #949187",
"6X c #959289",
"7X c #999689",
"8X c #98958C",
"9X c #99958C",
"0X c #98958D",
"qX c #99958D",
"wX c #98968D",
"eX c #99968D",
"rX c #99968E",
"tX c #99968F",
"yX c #9C988D",
"uX c #9C998D",
"iX c #9C998E",
"pX c #9B9890",
"aX c #9C9891",
"sX c #9C9991",
/* pixels */
"                                                                              ",
"                                                                              ",
"                          t j j t t e j                                       ",
"                        : h.g.s.s.s.w.s.> > >                                 ",
"                      : s.s.s.s.s.s.s.I.!.I.!.> : :                           ",
"              y e w w s.s.h.h.h.g.W.].].!.].I.I.eXeX:                         ",
"            1 ' } X.X.} h.h.h.h.W.].W.W.].!.].9Xs.0.s.*                       ",
"          1 ' } } o.X.3.h.h.{.W.W. X].].].I.].9X0.s.0.s.:                     ",
"        x *XY.o.o.o.3.3.@X{.].].{.{.{.W.].W.eXF.I.3.w.w.w.w                   ",
"        c *XY.Y.W.Y.Y.uX@X].].{.[.}.*X{. X].eXI.G.s.w.w.w.3                   ",
"        v *XW.Y.Y.W.W.uX@X*X*X].*X{.]. X*XeXU.F.F.I.0.w.w.1                   ",
"        c *XY.W.W.W.W.uX*X{.*X*X*X*X*X].*XeXL.L.I.F.s.3.w.w                   ",
"        z *XW.Y.Y.Y.eX*X*X*X=X-X{.*X*X*X=XeXI.I.I.F.F.w.w.5                   ",
"        j *XU.Y.Y.5Xs.g.s.s.eXeXeXeXeX7XeXF.L.I.F.F.L.s.w.w                   ",
"        j =XU.Y.Y.5XS.M.S.2X2X2X2X2X2X2X2XF.F.I.F.M.M.I.w.1                   ",
"        j =XU.W.yXS.S.F.2X2X3X3X3X3X3X2X2XF.I.F.I.M.Z.L.w.w                   ",
"        j *XW.eX2X2X2X2X3X3X2X2X3X3X3X3X2XF.F.F.M.M.S.b.I.1                   ",
"        g *XuX1X2X2X2X2X2X2X2X~ ) [ eXeX0X7XF.L.M.M.Z.b.b.w                   ",
"        w 7X1X1X2X1X2X2X2X5X[ [ ) J ) ) 1.1.6X7XeXb.M.M.M.3                   ",
"        q :X1X2X1X1X2XeXeXeX[ ~ J J ) Q 3.1.1.1.1.eXeXb.M.3                   ",
"        w >X>X<XpXpXpX~ ) ) z.g.J J ~ ~ 3.;.1.X.1.1.;.eXtX*                   ",
"        w sXtXsX1.1.6.) ) ~ R ~ x.J J ~ 1.1.1.1.;.;.;.;.}.#                   ",
"        % :X1.1.1.1.;.~ ~ ~ ~ n ) x.J Q Q 1.;.;.;.;.1.;.|.$                   ",
"        % =X;.;.1.~ ~ ~ ~ ~ ~ 6.Q Z J a Q Q ;.;.R ~ *.;.A.#                   ",
"        $ =X1.1.;.Q Q T Q Q Q B Q A 0.b T ) ;.;.Q R Q *.V.#                   ",
"        $ *X;.;.*.) T ) Q Q Q B H A T d.T T Q T R Q T T A.#                   ",
"        $ v.Q *.;.T T Q T ) T ;.*.A Q B T ) T Q Q R L T V.#                   ",
"        $ A.R R Q T Q T Q T T T Q 1.T ;.T T Q T R R Q T V.#                   ",
"        # V.L Q T Q T Q Q T Q T Q Q L Q T T T T T Q Q L V..                   ",
"        # V.Q L T T T T T Q T T R a a B T T T T T L T L B..                   ",
"        . A.L Q L Q T T T T T T Q *.6.m T T T R T L T *.A..                   ",
"        . A.L L Q L T T T T T b T b *.m Q L R T L T L *.B.#                   ",
"        . A.L L T R Q L Q L Q b L 6.Q *.Q T L T L L *.#.B..                   ",
"        . B.L T L L L T L T L u p u L L T L T L T *.#.*.A..                   ",
"        . x.*.L T L T L T L T *.q.*.T L L T L T L *.*.q.b .                   ",
"        . c.*.L L T L T L T T T L T L T T L T L L *.6.p F $                   ",
"        . V.#.#.L T L L T L T L T L T L *.#.*.L L *.d.a F .                   ",
"        . B.#.#.#.#.#.*.L T L T L L L *.#.*.#.L L *.a F F .                   "
};
