/* XPM */
static char *_ee45e3e87c541dcf0e1277ac1e67340QHBLvmNAU5zKxYoo[] = {
/* columns rows colors chars-per-pixel */
"38 38 8 1 ",
"  c #636917",
". c #656C17",
"X c #72751B",
"o c #787B21",
"O c #7F8226",
"+ c #A2814F",
"@ c #9CA8AD",
"# c #B3B0A9",
/* pixels */
"XXXXXXXXXXXXXXXXXXXXXXXXXXXXXXXXXXXXXX",
"XXXXXXXXXXXXXXXXXXXXXXXXXXXXXXXXXXXXXX",
"XXXXXXXXXXXXXXXXXXXXXXXXXXXXXXXXXXXXXX",
"XXXXXXXXXXXXXXXXXXXXXXXXXXXXXXXXXXXXXX",
"XXXXXXXXXXXXXXXXXXXXXXXXXXXXXXXXXXXXXX",
"XXXXXXXXXXXXXXXXXXXXXXXXXXXXXXXXXXXXXX",
"XXXXXXXXXXXXXXXXXXXXXXXXXXXXXXXXXXXXXX",
"XXXXXXXXXXXXXXXXXXXXXXXXXXXXXXXXXXXXXX",
"XXXXXXXXOXXXXXXXXXXXXXXXXXXXXXXXXXXXXX",
"XXXOOoXXooXXXXXXXXXXXXXXXXXXXXXXXXXXXX",
"XXXXOooX.oXX@@XXXXXXXXXXXXXXXXXXXXXXXX",
"XXXX.ooo.Xoo@+@XXXXXXXXXXXXXXXXXXXXXXX",
"XXXOo.ooX##o @@XXXXXXXXXXXXXXXXXXXXXXX",
"XXX.oo.o#++#X  XXXXXXXXXXXXXXXXXXXXXXX",
"XXXX.o.. ## X##XXXXXXXXXXXXXXXXXXXXXXX",
"XXXXXXXXX  X#++#XXXXXXXXXXXXXXXXXXXXXX",
"XXXXX@@XXX## ## XXXXXXXXXXXXXXXXXXXXXX",
"XXXXX+@XX#+#X  XXXXXXXXXXXXXXXXXXXXXXX",
"XXXXX  XX## XXXXXXXXXXXXXXXXXXXXXXXXXX",
"XXXXXXXXX  XXXXXXXXXXXXXXXXXXXXXXXXXXX",
"XXXXXXXXXXXXXXXXXXXXXXXXXXXXXXXXXXXXXX",
"XXXXXXXXXXXXXXXXXXXXXXXXXXXXXXXXXXOOXX",
"XXXXXXXXXXXXXXXXXXXXXXXXXXXXXXXXXXXOoo",
"XXXXXXXXXXXXXXXXXXXXXXXXXXXXXXXXXXX.oo",
"XXXXXXXXXXXXXXXXXXXXXXXXXXXXXXXXXXXX..",
"XXXXXXXXXXXXXXXXXXXXXXXXXXXXXXXXXXXXXX",
"XXXXXXXXXXXXXXXXXXXXXXXXXXXXXXXXXXXXXX",
"XXXXXXXXXXXXXXXXXXXXXXXXXXXXXXXXXXXXXX",
"XXXXXXXXXXXXXXXXXXXXXXXXXXXXXXXXXXXXXX",
"XXXXXXXXXXXXXXXXXXXXXXXXXXXXXXXXXXXXXX",
"XXXXXXXXXXXXXXXXXXXXXXXXXXXXXXXXXXXXXX",
"XXXXXXXXXXXXXXXXXXXXXXXXXXXXXXXXXXXXXX",
"XXXXXXXXXXXXXXXXXXXXXXXXXXXXXXXXXXXXXX",
"XXXXXXXXXXXXXXXXXXXXXXXXXXXXXXXXXXXXXX",
"XXXXXXXXXXXXXXXXXXXXXXXXXXXXXXXXXXXXXX",
"XXXXXXXXXXXXXXXXXXXXXXXXXXXXXXXXXXXXXX",
"XXXXXXXXXXXXXXXXXXXXXXXXXXXXXXXXXXXXXX",
"XXXXXXXXXXXXXXXXoOXXXXooXXXXXXXXXXXXXX"
};
