/* XPM */
static char *d8558b7bcabd4e9ab736aea526fd36c1zxxXcVCIhcezEhDh[] = {
/* columns rows colors chars-per-pixel */
"38 38 4 1 ",
"  c #656C17",
". c #72751B",
"X c #787B21",
"o c #7F8226",
/* pixels */
"......................................",
"......................................",
"......................................",
".............o........................",
"......Xoo...o.........................",
".......oXX.oo.........................",
"....... XX.XX.........................",
"........ X X .........................",
"......... . ..........................",
"......................................",
"......................................",
"......................................",
"......................................",
"......................................",
"......................................",
"......................................",
"......................................",
"......................................",
"......................................",
"......................................",
"......................................",
"......................................",
"......................................",
"......................................",
"......................................",
"......................................",
"......................................",
"......................................",
"........................oo............",
".........................oX....o......",
".........................XXX.Xo.......",
"......................oXX XXXX .......",
".......................XXX  XX .......",
"....................... XX..X ........",
"........................ X............",
"......................................",
".....................................o",
"..................................... "
};
