/* XPM */
static char *_d660c53ea584c958669ebe4eae60dd2GfcjSWoBygU8HoAj[] = {
/* columns rows colors chars-per-pixel */
"38 38 16 1 ",
"  c None",
". c #5F7A79",
"X c #90625D",
"o c #AA7959",
"O c #8A4A70",
"+ c #A35B70",
"@ c #AF6776",
"# c #BD757E",
"$ c #6E967C",
"% c #B68962",
"& c #C49A6C",
"* c #97BB8E",
"= c #D99A9A",
"- c #E8B5AC",
"; c #AED499",
": c #C2E09A",
/* pixels */
"                                      ",
"                                      ",
"                .........             ",
"              ..*;;;;;;**.            ",
"            ..*;;;:::;::;*..          ",
"           .*;;;;;:::;::;;**.         ",
"          .*;:::;:::;;;;;;;;*.        ",
"         .**;::::::;;;:::;;;**.       ",
"         .;;;;;::;;;;;:@@:@+**.       ",
"        .*;;;;;;;;;;;;@-=@##O;*.      ",
"        .*;;;;;;;;;;;;+=####O;*.      ",
"        .**@@;@+*;;;;;;+#@#O***.      ",
"        .*@-=@##O;;;;;;*OOO;**.       ",
"        .*+=####O***;;*;;;****.       ",
"         .*+#@#O***************.      ",
"         .**OOO****************.      ",
"        .$********************$.      ",
"        .$********************$.      ",
"        .$$$*$$**$$$*****$$$$$$.      ",
"        .$$$*$$**$$$@@*@+$$$$$$.      ",
"        .$$$$$$$$**@-=@##O**$$.       ",
"         .$$***$$$$+=####O$$$$.       ",
"         .$$$$$$$$$$+#@#O$$$$$.       ",
"          .$$$$$$$$$$OOO$$$$$.        ",
"           ..$$$$$$$$$$$$$...         ",
"             .............            ",
"                XooooooX              ",
"                X%oooo%X              ",
"                X%%%%%%X              ",
"                X%%%%%%X              ",
"                X%%%%%%X              ",
"                X%&%&&&X              ",
"               X&&&&&&&&X             ",
"                &&&&&&&&              ",
"                   &&                 ",
"                                      ",
"                                      ",
"                                      "
};
